<?xml version="1.0" encoding="utf-8"?>
<!-- Generator: Adobe Illustrator 16.0.0, SVG Export Plug-In . SVG Version: 6.00 Build 0)  -->
<!DOCTYPE svg PUBLIC "-//W3C//DTD SVG 1.1//EN" "http://www.w3.org/Graphics/SVG/1.1/DTD/svg11.dtd">
<svg version="1.1" id="图层_1" xmlns="http://www.w3.org/2000/svg" xmlns:xlink="http://www.w3.org/1999/xlink" x="0px" y="0px"
	 width="150.714px" height="150.714px" viewBox="0 0 150.714 150.714" enable-background="new 0 0 150.714 150.714"
	 xml:space="preserve">
<path fill="#FFFFFF" stroke="#274DA0" stroke-width="2" stroke-miterlimit="10" d="M148.214,75.357
	c0,40.238-32.619,72.857-72.857,72.857c-40.238,0-72.857-32.619-72.857-72.857C2.5,35.119,35.119,2.5,75.357,2.5
	C115.595,2.5,148.214,35.119,148.214,75.357z M82.833,14.423c-12.354,0-23.821,3.842-33.247,10.41
	c7.041-3.024,14.804-4.696,22.957-4.696c32.2,0,58.303,26.102,58.303,58.302c0,19.813-9.883,37.313-24.982,47.853
	c20.741-8.931,35.265-29.553,35.265-53.566C141.128,40.525,115.034,14.423,82.833,14.423z"/>
</svg>
