<?xml version="1.0" encoding="utf-8"?>
<!-- Generator: Adobe Illustrator 16.0.0, SVG Export Plug-In . SVG Version: 6.00 Build 0)  -->
<!DOCTYPE svg PUBLIC "-//W3C//DTD SVG 1.1//EN" "http://www.w3.org/Graphics/SVG/1.1/DTD/svg11.dtd">
<svg version="1.1" id="图层_1" xmlns="http://www.w3.org/2000/svg" xmlns:xlink="http://www.w3.org/1999/xlink" x="0px" y="0px"
	 width="143.064px" height="148px" viewBox="0 0 143.064 148" enable-background="new 0 0 143.064 148" xml:space="preserve">
<path fill="none" d="M142.065,29.661h-25.04c-6.63,0-12-5.558-12-12.42V7.926c0-2.515,0.721-4.843,1.95-6.789"/>
<path fill="none" d="M126.533,78.533c0,30.374-24.625,54.998-55.001,54.998c-30.377,0-55-24.624-55-54.998c0-30.376,24.625-55,55-55
	S126.533,48.157,126.533,78.533z"/>
<path fill="none" d="M111.288,78.534c0,20.198-17.801,36.571-39.755,36.571c-21.957,0-39.756-16.373-39.756-36.571
	c0-20.201,17.8-36.576,39.756-36.576C93.488,41.958,111.288,58.333,111.288,78.534z"/>
<path fill="none" d="M142.065,134.58c0,6.859-5.373,12.42-12,12.42H13c-6.627,0-12-5.561-12-12.42V13.42C1,6.561,6.373,1,13,1
	h117.064c6.627,0,12,5.561,12,12.42V134.58z M122.2,11.245h8.667 M122.2,18.579h8.667"/>
<path fill="none" d="M57.626,14.813c0,2.578-2.089,4.667-4.667,4.667H35.626c-2.578,0-4.667-2.089-4.667-4.667l0,0
	c0-2.577,2.089-4.667,4.667-4.667h17.333C55.537,10.147,57.626,12.236,57.626,14.813L57.626,14.813z"/>
<path fill="none" d="M23.816,14.813c0,2.836-2.299,5.136-5.136,5.136s-5.136-2.299-5.136-5.136s2.299-5.136,5.136-5.136
	S23.816,11.977,23.816,14.813z"/>
<path fill="none" d="M111.288,71.533c-42.329,34.8-32.995-11.867-79.512,7.001"/>
</svg>
